<?xml version="1.0" standalone="no"?>
<!DOCTYPE svg PUBLIC "-//W3C//DTD SVG 20010904//EN"
 "http://www.w3.org/TR/2001/REC-SVG-20010904/DTD/svg10.dtd">
<svg version="1.0" xmlns="http://www.w3.org/2000/svg"
 width="260.000000pt" height="260.000000pt" viewBox="0 0 260.000000 260.000000"
 preserveAspectRatio="xMidYMid meet">
<metadata>
Created by potrace 1.11, written by Peter Selinger 2001-2013
</metadata>
<g transform="translate(0.000000,260.000000) scale(0.100000,-0.100000)"
fill="#000000" stroke="none">
<path d="M240 1300 l0 -660 475 0 475 0 0 130 0 130 -315 0 -315 0 0 530 0
530 -160 0 -160 0 0 -660z"/>
<path d="M1510 1300 l0 -660 155 0 155 0 0 265 0 265 265 0 265 0 0 135 0 135
-265 0 -265 0 0 130 0 130 265 0 265 0 0 130 0 130 -420 0 -420 0 0 -660z"/>
</g>
</svg>
